#!OML:ASF F:\VICON\USERDATA\INSTALL\rory3\rory3.ASF
:FULLY-SPECIFIED
:DEGREES
206
root 1.12164 17.7218 -1.93191 -4.01244 -43.8088 6.08686
lowerback 10.8118 0.507519 -4.42956
upperback 1.45752 0.111122 -0.345111
thorax -4.54939 0.116167 2.12063
lowerneck -19.4287 -4.6785 -11.0863
upperneck 34.2074 -5.65752 6.23796
head 15.9468 -3.09167 3.4875
rclavicle -3.00165e-014 2.60408e-014
rhumerus -37.3324 -11.3883 -81.1868
rradius 33.4326
rwrist 1.56206
rhand -13.287 7.41237
rfingers 7.12502
rthumb 12.8166 -22.1742
lclavicle -3.00165e-014 2.60408e-014
lhumerus -28.6433 -0.521061 83.6111
lradius 37.4945
lwrist -2.46645
lhand -17.5716 28.4827
lfingers 7.12502
lthumb 8.68372 58.284
rfemur -26.2816 -5.85374 18.2209
rtibia 21.0835
rfoot -5.31837 -3.99666
rtoes 3.15003
lfemur 19.4207 -0.347533 -27.0819
ltibia 1.27222e-014
lfoot -5.56617 -3.86544
ltoes -19.2937
207
root 1.00697 17.7323 -1.85216 -3.96972 -43.6193 6.09753
lowerback 10.6814 0.479737 -4.36843
upperback 1.48737 0.0870047 -0.389624
thorax -4.44375 0.100268 2.0432
lowerneck -19.4155 -4.69789 -11.0332
upperneck 34.1617 -5.72522 6.29241
head 15.929 -3.10383 3.48762
rclavicle -6.95746e-016 -6.55989e-015
rhumerus -37.4783 -11.7112 -81.1127
rradius 33.074
rwrist 1.97064
rhand -13.3591 7.40469
rfingers 7.12502
rthumb 12.7471 -22.1862
lclavicle -6.95746e-016 -6.55989e-015
lhumerus -28.777 -0.361178 83.5501
lradius 37.2039
lwrist -2.44478
lhand -17.7225 28.3274
lfingers 7.12502
lthumb 8.53816 58.1347
rfemur -25.9781 -5.45255 18.0932
rtibia 21.2896
rfoot -4.4827 -3.07666
rtoes 4.84785
lfemur 19.8298 -0.686422 -27.0315
ltibia -1.27222e-014
lfoot -5.02357 -3.9348
ltoes -18.7874
208
root 0.891158 17.7495 -1.76755 -3.74577 -43.4465 5.80735
lowerback 10.5804 0.47843 -4.21447
upperback 1.47359 0.117657 -0.214765
thorax -4.404 0.114153 2.13481
lowerneck -19.3939 -4.71202 -11.1019
upperneck 34.2589 -5.6884 6.18312
head 15.9669 -3.11527 3.46189
rclavicle 5.81445e-014 2.38542e-015
rhumerus -37.6685 -12.026 -80.7024
rradius 32.6572
rwrist 2.3352
rhand -13.3135 7.4808
rfingers 7.12502
rthumb 12.791 -22.1074
lclavicle 5.81445e-014 2.38542e-015
lhumerus -29.0681 0.194701 83.7337
lradius 36.8643
lwrist -2.78057
lhand -18.3798 28.1755
lfingers 7.12502
lthumb 7.90381 58.0077
rfemur -25.6201 -4.90331 18.1309
rtibia 21.3351
rfoot -3.18738 -2.42765
rtoes 7.56501
lfemur 20.2635 -1.03246 -26.7146
ltibia 4.13472e-014
lfoot -4.43298 -4.16375
ltoes -17.9275
209
root 0.775626 17.7681 -1.68212 -3.44542 -43.323 5.36537
lowerback 10.697 0.492895 -4.15206
upperback 1.30195 0.155871 0.165428
thorax -4.65217 0.143893 2.49179
lowerneck -19.211 -4.7149 -11.3211
upperneck 34.4725 -5.5586 5.93524
head 16.0155 -3.13499 3.4239
rclavicle -5.49143e-014 1.27222e-014
rhumerus -38.0853 -12.0626 -80.0497
rradius 32.3046
rwrist 2.53889
rhand -13.1303 7.44022
rfingers 7.12502
rthumb 12.9676 -22.1368
lclavicle -5.49143e-014 1.27222e-014
lhumerus -29.7231 1.04503 84.133
lradius 36.5534
lwrist -3.23101
lhand -18.5291 28.0865
lfingers 7.12502
lthumb 7.75965 57.9242
rfemur -25.2556 -4.42287 18.3548
rtibia 21.2605
rfoot -1.70988 -2.05059
rtoes 11.935
lfemur 20.7064 -1.33228 -26.2883
ltibia -1.90833e-014
lfoot -3.92935 -4.447
ltoes -18.6387
210
root 0.659579 17.7895 -1.59797 -3.06657 -43.2431 4.96866
lowerback 10.7045 0.454358 -4.08231
upperback 1.09091 0.128142 0.495755
thorax -4.87637 0.141257 2.80289
lowerneck -18.9588 -4.67078 -11.4993
upperneck 34.6265 -5.36463 5.64755
head 16.0073 -3.1286 3.37226
rclavicle 6.82328e-014 -3.57812e-015
rhumerus -38.497 -12.1016 -79.4512
rradius 31.8973
rwrist 2.92478
rhand -12.8353 7.44014
rfingers 7.12502
rthumb 13.2519 -22.1186
lclavicle 6.82328e-014 -3.57812e-015
lhumerus -30.4243 1.76934 84.4001
lradius 36.2762
lwrist -3.3042
lhand -18.2149 28.2344
lfingers 7.12502
lthumb 8.06291 58.0606
rfemur -25.0031 -4.28754 18.707
rtibia 21.1163
rfoot -0.15158 -1.65145
rtoes 15.1257
lfemur 21.0065 -1.59521 -25.8978
ltibia 1.59028e-014
lfoot -3.27317 -4.70777
ltoes -19.4786
211
root 0.543946 17.8158 -1.51192 -2.59141 -43.0718 4.34442
lowerback 10.6526 0.350856 -3.55597
upperback 1.02331 0.063024 0.649232
thorax -4.91256 0.102263 2.6759
lowerneck -18.8168 -4.62123 -11.4425
upperneck 34.6437 -5.28281 5.51512
head 15.965 -3.10895 3.3217
rclavicle -7.65818e-014 1.23246e-014
rhumerus -38.7976 -12.2251 -79.2321
rradius 31.6174
rwrist 3.16313
rhand -12.822 7.4321
rfingers 7.12502
rthumb 13.2648 -22.1258
lclavicle -7.65818e-014 1.23246e-014
lhumerus -30.7904 2.13333 84.4078
lradius 35.8551
lwrist -3.11494
lhand -17.9498 28.6599
lfingers 7.12502
lthumb 8.3188 58.4761
rfemur -24.5893 -4.16869 19.2127
rtibia 21.0259
rfoot 0.687726 -1.8965
rtoes 15.354
lfemur 21.3759 -1.95558 -25.3208
ltibia -6.67916e-014
lfoot -2.31355 -4.89252
ltoes -20.0033
212
root 0.428381 17.841 -1.42339 -2.2683 -42.8337 3.8819
lowerback 10.5594 0.263456 -3.07625
upperback 1.06022 0.0111405 0.731198
thorax -4.8177 0.0655157 2.49769
lowerneck -18.8937 -4.60491 -11.4318
upperneck 34.7602 -5.27576 5.55831
head 16.0411 -3.10074 3.34301
rclavicle 8.39865e-014 -2.06736e-014
rhumerus -38.9319 -12.5921 -79.0178
rradius 31.3142
rwrist 3.44592
rhand -12.9291 7.55008
rfingers 7.12502
rthumb 13.1615 -22.0145
lclavicle 8.39865e-014 -2.06736e-014
lhumerus -31.0016 2.48525 84.3653
lradius 35.4015
lwrist -3.09723
lhand -18.0511 29.3559
lfingers 7.12502
lthumb 8.22105 59.1759
rfemur -24.1012 -4.0822 19.5812
rtibia 21.0579
rfoot 0.576528 -3.1502
rtoes 11.8285
lfemur 21.7916 -2.36236 -24.8999
ltibia 3.18055e-015
lfoot -1.41899 -5.0642
ltoes -21.3216
213
root 0.312938 17.8672 -1.33643 -2.08905 -42.8 3.65912
lowerback 10.5286 0.289228 -2.79435
upperback 1.03004 0.0796165 0.738613
thorax -4.83618 0.0946192 2.33614
lowerneck -18.8524 -4.60924 -11.3361
upperneck 34.8535 -5.34103 5.58186
head 16.0818 -3.11553 3.32686
rclavicle 3.2054e-014 7.55382e-015
rhumerus -39.1572 -13.0812 -78.7963
rradius 30.9742
rwrist 3.61624
rhand -13.0835 7.48696
rfingers 7.12502
rthumb 13.0127 -22.0872
lclavicle 3.2054e-014 7.55382e-015
lhumerus -31.3319 2.95585 84.2418
lradius 34.9254
lwrist -3.51243
lhand -19.3878 28.855
lfingers 7.12502
lthumb 6.93076 58.7215
rfemur -23.6864 -4.08645 19.8329
rtibia 21.1664
rfoot 0.133432 -4.4555
rtoes 8.52297
lfemur 22.1818 -2.55518 -24.6634
ltibia 3.49861e-014
lfoot -0.52712 -5.32238
ltoes -22.1769
214
root 0.195015 17.8925 -1.25304 -1.81417 -42.989 3.2573
lowerback 10.5331 0.36269 -2.48393
upperback 0.988299 0.216971 0.811037
thorax -4.88986 0.158218 2.21664
lowerneck -18.7275 -4.58208 -11.2434
upperneck 34.8829 -5.36242 5.5984
head 16.0649 -3.11328 3.31575
rclavicle 8.04084e-014 -1.11319e-014
rhumerus -39.4327 -13.4546 -78.5926
rradius 30.6965
rwrist 3.65707
rhand -13.1945 7.42536
rfingers 7.12502
rthumb 12.9057 -22.1556
lclavicle 8.04084e-014 -1.11319e-014
lhumerus -31.7617 3.62885 84.0782
lradius 34.5097
lwrist -3.93552
lhand -21.1979 27.3102
lfingers 7.12502
lthumb 5.1833 57.2268
rfemur -23.2738 -4.00929 20.2917
rtibia 21.3322
rfoot -0.0314236 -4.64363
rtoes 9.21381
lfemur 21.1824 -2.52789 -24.201
ltibia 2.80882
lfoot -0.820723 -5.41508
ltoes -21.4789
215
root 0.0792326 17.9143 -1.17091 -1.63751 -43.2037 3.01408
lowerback 10.5552 0.420557 -2.29656
upperback 0.929805 0.32019 0.905008
thorax -4.96887 0.208056 2.19411
lowerneck -18.6024 -4.53757 -11.3454
upperneck 34.9277 -5.30319 5.65952
head 16.0567 -3.09831 3.37452
rclavicle -3.06128e-014 1.63003e-014
rhumerus -39.6412 -13.8409 -78.2782
rradius 30.346
rwrist 3.85871
rhand -13.2513 7.44316
rfingers 7.12502
rthumb 12.851 -22.1412
lclavicle -3.06128e-014 1.63003e-014
lhumerus -32.2859 4.34929 83.9674
lradius 34.217
lwrist -3.90005
lhand -21.453 26.6663
lfingers 7.12502
lthumb 4.93691 56.5887
rfemur -22.847 -3.75719 20.5785
rtibia 21.4972
rfoot 0.00398071 -4.07218
rtoes 12.6855
lfemur 20.2072 -2.45907 -23.8927
ltibia 5.48388
lfoot -0.894491 -5.49328
ltoes -22.0793
216
root -0.037592 17.9361 -1.08555 -1.56272 -43.4265 2.89617
lowerback 10.532 0.493543 -2.22681
upperback 0.912218 0.430754 0.999489
thorax -4.98071 0.262431 2.23737
lowerneck -18.642 -4.49915 -11.3978
upperneck 35.074 -5.22212 5.63586
head 16.1312 -3.07926 3.39302
rclavicle 1.03865e-014 1.15295e-014
rhumerus -39.7771 -14.2515 -77.9101
rradius 29.9563
rwrist 4.15545
rhand -13.3845 7.5712
rfingers 7.12502
rthumb 12.7225 -22.0212
lclavicle 1.03865e-014 1.15295e-014
lhumerus -32.7768 4.96702 83.8723
lradius 33.949
lwrist -3.71337
lhand -19.7788 27.6017
lfingers 7.12502
lthumb 6.55333 57.4803
rfemur -22.4238 -3.65961 20.8141
rtibia 21.6972
rfoot 0.0114414 -3.20319
rtoes 14.4127
lfemur 19.5476 -2.37388 -23.7093
ltibia 7.5101
lfoot -0.4589 -5.68604
ltoes -24.8363
217
root -0.153013 17.9609 -0.997236 -1.52324 -43.5814 2.87241
lowerback 10.4863 0.577734 -2.15822
upperback 0.883036 0.552995 1.0227
thorax -4.99218 0.322095 2.205
lowerneck -18.701 -4.52663 -11.3571
upperneck 35.2812 -5.26393 5.57476
head 16.2514 -3.10544 3.35582
rclavicle -4.17448e-015 -1.98785e-015
rhumerus -40.0134 -14.6563 -77.5963
rradius 29.7319
rwrist 4.28492
rhand -13.3527 7.3832
rfingers 7.12502
rthumb 12.7531 -22.2073
lclavicle -4.17448e-015 -1.98785e-015
lhumerus -33.3078 5.36371 83.8262
lradius 33.6798
lwrist -3.68061
lhand -18.5308 28.577
lfingers 7.12502
lthumb 7.75804 58.4147
rfemur -22.0659 -3.91762 21.0214
rtibia 21.9775
rfoot -0.250489 -2.37881
rtoes 13.5007
lfemur 18.9356 -2.34841 -23.6298
ltibia 9.3197
lfoot 0.275475 -5.99228
ltoes -26.9092
218
root -0.265737 17.9775 -0.912276 -1.43042 -43.6761 2.78312
lowerback 10.4905 0.626669 -2.02078
upperback 0.817104 0.635961 1.05177
thorax -5.06698 0.362148 2.14547
lowerneck -18.6174 -4.54191 -11.4174
upperneck 35.3429 -5.29102 5.59632
head 16.2695 -3.12575 3.3729
rclavicle -1.2424e-015 -2.14687e-014
rhumerus -40.2396 -14.9023 -77.3329
rradius 29.4439
rwrist 4.51394
rhand -13.4171 7.25648
rfingers 7.12502
rthumb 12.6911 -22.3379
lclavicle -1.2424e-015 -2.14687e-014
lhumerus -33.8317 5.65871 83.8149
lradius 33.2244
lwrist -3.73132
lhand -18.2927 28.5795
lfingers 7.12502
lthumb 7.98787 58.4086
rfemur -21.7165 -4.18634 21.2342
rtibia 22.2576
rfoot -0.785452 -2.09911
rtoes 12.085
lfemur 18.2835 -2.37711 -23.5316
ltibia 11.2087
lfoot 0.872461 -6.31686
ltoes -29.9836
219
root -0.374617 17.9827 -0.827452 -1.31041 -43.7989 2.59726
lowerback 10.5109 0.637318 -1.81745
upperback 0.781658 0.678447 1.14139
thorax -5.11655 0.380463 2.11801
lowerneck -18.5593 -4.47531 -11.4607
upperneck 35.3887 -5.17444 5.56694
head 16.2651 -3.09042 3.39227
rclavicle 2.55935e-014 1.59028e-014
rhumerus -40.3574 -15.2412 -76.9688
rradius 29.0785
rwrist 4.87837
rhand -13.3768 7.44955
rfingers 7.12502
rthumb 12.7299 -22.1424
lclavicle 2.55935e-014 1.59028e-014
lhumerus -34.1851 6.33686 83.6095
lradius 32.6017
lwrist -5.01848
lhand -16.7472 28.4821
lfingers 7.12502
lthumb 9.47931 58.2489
rfemur -21.316 -4.53021 21.5013
rtibia 22.4373
rfoot -1.4074 -1.89232
rtoes 10.8599
lfemur 17.524 -2.20731 -23.3191
ltibia 13.3647
lfoot 1.24758 -6.85674
ltoes -33.8807
220
root -0.486476 17.996 -0.74563 -1.14283 -43.8729 2.34132
lowerback 10.5059 0.659238 -1.59181
upperback 0.796878 0.73774 1.2166
thorax -5.09886 0.404963 2.06051
lowerneck -18.5557 -4.45237 -11.5237
upperneck 35.4519 -5.16206 5.67004
head 16.3007 -3.08192 3.45379
rclavicle -8.60738e-014 5.56597e-015
rhumerus -40.3821 -15.4681 -76.7779
rradius 28.8083
rwrist 5.00771
rhand -13.344 7.41504
rfingers 7.12502
rthumb 12.7616 -22.175
lclavicle -8.60738e-014 5.56597e-015
lhumerus -34.5271 6.15801 83.8574
lradius 32.1766
lwrist -3.83343
lhand -18.1316 28.3522
lfingers 7.12502
lthumb 8.14333 58.1753
rfemur -20.8341 -4.73283 21.7798
rtibia 22.5044
rfoot -1.89937 -1.63535
rtoes 11.3998
lfemur 16.5738 -2.04327 -22.9401
ltibia 15.6935
lfoot 2.01884 -7.54843
ltoes -35.1532
